<svg id="Capa_1" data-name="Capa 1" xmlns="http://www.w3.org/2000/svg" viewBox="0 0 417.42 427.39"><defs><style>.cls-1{fill:#652e81;}.cls-2{fill:#3e2155;}</style></defs><path class="cls-1" d="M172,434.57c-21.66,36.26-34.36,5.19-56.53,11.52-31.79,9.07-18.11,57.21,13.73,48.12C144.46,489.86,148.9,474.42,172,434.57Z" transform="translate(-88.93 -207.25)"/><path class="cls-2" d="M210.06,478.45c40.71-11.62,23.16-73.26-17.59-61.63-18.09,5.16-23.23,22.56-48.43,66C165.85,448,183,486.17,210.06,478.45Z" transform="translate(-88.93 -207.25)"/><path class="cls-1" d="M457.9,302.51a40.17,40.17,0,0,0-28.77-48.11c-51.75-13.66-72.05,64.62-20.31,78,2.73.7,66.38,9.09,69.17,9.47C462.1,337.78,452.17,328.71,457.9,302.51Z" transform="translate(-88.93 -207.25)"/><path class="cls-2" d="M428.23,335.27c6.47,1.45,12.36,4,16.35,9.24,8.75,11.51,2.51,18.37,5.64,29.3,9.07,31.8,57.21,18.1,48.12-13.73C492.08,338.13,466.91,340.42,428.23,335.27Z" transform="translate(-88.93 -207.25)"/><path class="cls-1" d="M405.66,504.32c2.66,34.21-2,86.67,35.62,75.93a25,25,0,0,0,17.2-30.93C449.27,517,409.72,546.45,405.66,504.32Z" transform="translate(-88.93 -207.25)"/><path class="cls-2" d="M400.82,478.75a32.1,32.1,0,0,0-36.38-14.5c-31.31,8.93-30.88,54,1.22,61.39,24.8,5.69,40.1-4.08,44.1,31.49C409,547.08,405.92,487.39,400.82,478.75Z" transform="translate(-88.93 -207.25)"/><path class="cls-1" d="M355.57,253c24.2-16,6.61-52.38-20.43-44.67a25,25,0,0,0-17.2,30.93c2.12,7.42,5.42,8.57,7.6,18.35,4.29,19.15-10.39,24.18-24.44,36.07Z" transform="translate(-88.93 -207.25)"/><path class="cls-2" d="M290.33,315.22c-3,54.33,87.21,36.85,58.48-16.63-14.51-21.4-9.47-34.15,6.74-45.59C308.68,288,291.47,294.25,290.33,315.22Z" transform="translate(-88.93 -207.25)"/><path class="cls-1" d="M194.46,352.5c11.62,40.72,73.26,23.18,61.63-17.59-2.9-10.15-9.29-15.31-7-26.74,1.92-9.46,11.09-16.09,19.53-20.77C216.53,313.06,185.46,321,194.46,352.5Z" transform="translate(-88.93 -207.25)"/><path class="cls-2" d="M259.63,213.73a40.33,40.33,0,0,0-49.27,28.7c-9.24,35.06,34.22,46.81-1.69,74.5l60-29.53C301.83,269.06,293.41,222.64,259.63,213.73Z" transform="translate(-88.93 -207.25)"/><path class="cls-1" d="M302.64,513.3c-6.46-22.6-34.41-30.88-52-15.12-8.09,7.24-9.56,16.56-20.48,21.06-11.43,4.72-24.07-3.36-35.34-8.82l62.49,40C282.55,563.41,310.24,540,302.64,513.3Z" transform="translate(-88.93 -207.25)"/><path class="cls-2" d="M257.27,550.44c-2.58-1.66-63.4-41-66.36-41.81-51.5-13.58-72.13,64.35-20.56,78C224.09,600.75,210.26,527.21,257.27,550.44Z" transform="translate(-88.93 -207.25)"/><path class="cls-1" d="M119,411.4c34.68,9.14,63.34-28.34,44.84-59.76-14.64-24.37-7.06-36.27,7.48-45.56-52.39,27.2-68.6,31.66-77.49,47.38C81.58,375.12,93.14,404.57,119,411.4Z" transform="translate(-88.93 -207.25)"/><path class="cls-2" d="M152.16,260.77a25.15,25.15,0,0,0-15.37,12.58c-6.24,12.09-1,16.79,1.53,29,4.37,20.93-10.91,25.84-28.63,35.77l61.64-32C197.26,291,179.83,252.88,152.16,260.77Z" transform="translate(-88.93 -207.25)"/><path class="cls-1" d="M386.52,364c-31.08,8.86-31.06,53.59.9,61.41,21.95,5.38,36.43-.87,39.05,36.21l0-71.68C425.38,372.33,405.82,358.51,386.52,364Z" transform="translate(-88.93 -207.25)"/><path class="cls-2" d="M426.45,390c0,60.29-8.55,103.11,29.23,113.08,35,9.23,63.25-28.91,44.89-59.66C476.1,402.43,430.1,448.2,426.45,390Z" transform="translate(-88.93 -207.25)"/><path class="cls-1" d="M316.35,562.15c-20.82,21.94-16.74,38.8-50.5,24.65,56.91,36.94,54.31,35.12,54.31,35.12,22.89,17.52,56.13,6,63.44-21.73C394.05,560.54,344.89,532.05,316.35,562.15Z" transform="translate(-88.93 -207.25)"/><path class="cls-2" d="M232.37,616.4c5.1,17.85,28.35,26.15,44,8.31,9.88-13,21.71-18.38,42-3.83l-52.5-34.08C245.13,578.13,227,597.41,232.37,616.4Z" transform="translate(-88.93 -207.25)"/><path class="cls-2" d="M335.29,405.32a35.68,35.68,0,1,1-47-18.39A35.69,35.69,0,0,1,335.29,405.32Z" transform="translate(-88.93 -207.25)"/></svg>