<svg id="Capa_1" data-name="Capa 1" xmlns="http://www.w3.org/2000/svg" viewBox="0 0 254.1 260.17"><defs><style>.cls-1{fill:#652e81;}.cls-2{fill:#3e2155;}</style></defs><path class="cls-1" d="M221.17,429.24c-13.18,22.07-20.91,3.16-34.41,7-19.35,5.52-11,34.83,8.36,29.3C204.39,462.9,207.09,453.5,221.17,429.24Z" transform="translate(-170.59 -290.86)"/><path class="cls-2" d="M244.32,456c24.79-7.07,14.11-44.6-10.71-37.52-11,3.14-14.13,13.74-29.48,40.17C217.41,437.39,227.85,460.65,244.32,456Z" transform="translate(-170.59 -290.86)"/><path class="cls-1" d="M395.2,348.84a24.45,24.45,0,0,0-17.51-29.28c-31.51-8.31-43.86,39.34-12.37,47.5,1.66.43,40.41,5.54,42.11,5.76C397.76,370.32,391.71,364.8,395.2,348.84Z" transform="translate(-170.59 -290.86)"/><path class="cls-2" d="M377.14,368.79c3.94.88,7.52,2.45,9.95,5.63,5.32,7,1.53,11.18,3.43,17.83,5.52,19.36,34.83,11,29.3-8.36C416,370.53,400.68,371.93,377.14,368.79Z" transform="translate(-170.59 -290.86)"/><path class="cls-1" d="M363.4,471.7c1.61,20.82-1.23,52.76,21.68,46.22a15.24,15.24,0,0,0,10.47-18.83C389.94,479.44,365.87,497.35,363.4,471.7Z" transform="translate(-170.59 -290.86)"/><path class="cls-2" d="M360.45,456.13a19.53,19.53,0,0,0-22.15-8.82c-19.05,5.43-18.79,32.88.74,37.37,15.11,3.46,24.42-2.49,26.85,19.17C365.42,497.73,363.56,461.39,360.45,456.13Z" transform="translate(-170.59 -290.86)"/><path class="cls-1" d="M332.9,318.7c14.74-9.74,4-31.89-12.43-27.2A15.24,15.24,0,0,0,310,310.33c1.29,4.52,3.29,5.22,4.62,11.17,2.61,11.66-6.32,14.72-14.87,22Z" transform="translate(-170.59 -290.86)"/><path class="cls-2" d="M293.19,356.59c-1.8,33.07,53.09,22.43,35.6-10.13-8.83-13-5.77-20.79,4.1-27.75C304.36,340,293.88,343.82,293.19,356.59Z" transform="translate(-170.59 -290.86)"/><path class="cls-1" d="M234.83,379.28c7.07,24.79,44.6,14.11,37.51-10.71-1.76-6.18-5.65-9.32-4.24-16.27,1.17-5.76,6.75-9.8,11.89-12.65C248.26,355.27,229.35,360.08,234.83,379.28Z" transform="translate(-170.59 -290.86)"/><path class="cls-2" d="M274.5,294.81a24.54,24.54,0,0,0-30,17.47c-5.63,21.34,20.83,28.49-1,45.35l36.51-18C300.19,328.49,295.07,300.23,274.5,294.81Z" transform="translate(-170.59 -290.86)"/><path class="cls-1" d="M300.68,477.17A19.47,19.47,0,0,0,269,468c-4.93,4.41-5.82,10.08-12.47,12.82-7,2.88-14.65-2-21.52-5.37l38,24.36C288.45,507.67,305.31,493.4,300.68,477.17Z" transform="translate(-170.59 -290.86)"/><path class="cls-2" d="M273.06,499.77c-1.57-1-38.59-25-40.39-25.45-31.35-8.26-43.91,39.18-12.52,47.46C252.87,530.4,244.44,485.63,273.06,499.77Z" transform="translate(-170.59 -290.86)"/><path class="cls-1" d="M188.9,415.13c21.11,5.57,38.56-17.25,27.3-36.37-8.92-14.84-4.3-22.08,4.55-27.74-31.89,16.56-41.76,19.28-47.18,28.84C166.11,393.05,173.15,411,188.9,415.13Z" transform="translate(-170.59 -290.86)"/><path class="cls-2" d="M209.08,323.44a15.33,15.33,0,0,0-9.36,7.65c-3.8,7.37-.62,10.23.93,17.64,2.66,12.74-6.64,15.73-17.42,21.77L220.75,351C236.53,341.85,225.92,318.63,209.08,323.44Z" transform="translate(-170.59 -290.86)"/><path class="cls-1" d="M351.74,386.29c-18.91,5.4-18.9,32.62.55,37.39,13.36,3.27,22.18-.53,23.77,22V402.08C375.4,391.35,363.5,382.94,351.74,386.29Z" transform="translate(-170.59 -290.86)"/><path class="cls-2" d="M376.05,402.08c0,36.7-5.2,62.77,17.8,68.84,21.32,5.62,38.5-17.6,27.32-36.32C406.28,409.67,378.28,437.54,376.05,402.08Z" transform="translate(-170.59 -290.86)"/><path class="cls-1" d="M309,506.9c-12.68,13.36-10.19,23.62-30.74,15,34.64,22.48,33.06,21.38,33.06,21.38A24.53,24.53,0,0,0,350,530.06C356.33,505.92,326.4,488.58,309,506.9Z" transform="translate(-170.59 -290.86)"/><path class="cls-2" d="M257.91,539.93c3.1,10.87,17.25,15.91,26.76,5.06,6-7.89,13.21-11.19,25.58-2.34l-32-20.74C265.67,516.63,254.61,528.37,257.91,539.93Z" transform="translate(-170.59 -290.86)"/><path class="cls-2" d="M320.56,411.43A21.72,21.72,0,1,1,292,400.24,21.73,21.73,0,0,1,320.56,411.43Z" transform="translate(-170.59 -290.86)"/></svg>