<svg id="Capa_1" data-name="Capa 1" xmlns="http://www.w3.org/2000/svg" viewBox="0 0 254.1 392.76"><defs><style>.cls-1{font-size:77.22px;fill:#12192c;}.cls-1,.cls-3{font-family:Titillium-Bold, Titillium Bold;font-weight:700;}.cls-2{letter-spacing:-0.02em;}.cls-3{font-size:34.62px;}.cls-3,.cls-8{fill:#3e2155;}.cls-4{letter-spacing:0em;}.cls-5{letter-spacing:-0.04em;}.cls-6{letter-spacing:0em;}.cls-7{fill:#652e81;}</style></defs><text class="cls-1" transform="translate(3.12 347.32)"><tspan class="cls-2">C</tspan><tspan x="43.16" y="0">OMBE</tspan></text><text class="cls-3" transform="translate(41.59 384.1)"><tspan class="cls-4">C</tspan><tspan x="20.21" y="0">ASHF</tspan><tspan class="cls-5" x="97.89" y="0">L</tspan><tspan class="cls-6" x="112.88" y="0">OW</tspan></text><path class="cls-7" d="M221.17,363C208,385,200.26,366.1,186.76,370c-19.35,5.52-11,34.82,8.36,29.29C204.39,396.61,207.09,387.21,221.17,363Z" transform="translate(-170.59 -224.57)"/><path class="cls-8" d="M244.32,389.66c24.79-7.08,14.11-44.6-10.71-37.52-11,3.14-14.13,13.74-29.48,40.17C217.41,371.09,227.85,394.36,244.32,389.66Z" transform="translate(-170.59 -224.57)"/><path class="cls-7" d="M395.2,282.55a24.45,24.45,0,0,0-17.51-29.28c-31.51-8.32-43.86,39.33-12.37,47.5,1.66.43,40.41,5.53,42.11,5.76C397.76,304,391.71,298.5,395.2,282.55Z" transform="translate(-170.59 -224.57)"/><path class="cls-8" d="M377.14,302.49c3.94.89,7.52,2.45,9.95,5.63,5.32,7,1.53,11.18,3.43,17.84,5.52,19.36,34.83,11,29.3-8.36C416,304.24,400.68,305.63,377.14,302.49Z" transform="translate(-170.59 -224.57)"/><path class="cls-7" d="M363.4,405.41c1.61,20.82-1.23,52.75,21.68,46.22a15.24,15.24,0,0,0,10.47-18.83C389.94,413.15,365.87,431.05,363.4,405.41Z" transform="translate(-170.59 -224.57)"/><path class="cls-8" d="M360.45,389.84A19.55,19.55,0,0,0,338.3,381c-19.05,5.44-18.79,32.89.74,37.37,15.11,3.47,24.42-2.48,26.85,19.17C365.42,431.44,363.56,395.1,360.45,389.84Z" transform="translate(-170.59 -224.57)"/><path class="cls-7" d="M332.9,252.4c14.74-9.73,4-31.89-12.43-27.19A15.24,15.24,0,0,0,310,244c1.29,4.52,3.29,5.21,4.62,11.17,2.61,11.66-6.32,14.72-14.87,22Z" transform="translate(-170.59 -224.57)"/><path class="cls-8" d="M293.19,290.29c-1.8,33.08,53.09,22.44,35.6-10.12-8.83-13-5.77-20.79,4.1-27.76C304.36,273.73,293.88,277.52,293.19,290.29Z" transform="translate(-170.59 -224.57)"/><path class="cls-7" d="M234.83,313c7.07,24.78,44.6,14.11,37.51-10.71-1.76-6.18-5.65-9.32-4.24-16.28,1.17-5.76,6.75-9.79,11.89-12.64C248.26,289,229.35,293.79,234.83,313Z" transform="translate(-170.59 -224.57)"/><path class="cls-8" d="M274.5,228.51a24.55,24.55,0,0,0-30,17.47c-5.63,21.34,20.83,28.5-1,45.35l36.51-18C300.19,262.19,295.07,233.93,274.5,228.51Z" transform="translate(-170.59 -224.57)"/><path class="cls-7" d="M300.68,410.88A19.47,19.47,0,0,0,269,401.67c-4.93,4.41-5.82,10.08-12.47,12.82-7,2.87-14.65-2.05-21.52-5.37l38,24.36C288.45,441.37,305.31,427.11,300.68,410.88Z" transform="translate(-170.59 -224.57)"/><path class="cls-8" d="M273.06,433.48c-1.57-1-38.59-25-40.39-25.45-31.35-8.26-43.91,39.18-12.52,47.46C252.87,464.11,244.44,419.34,273.06,433.48Z" transform="translate(-170.59 -224.57)"/><path class="cls-7" d="M188.9,348.84c21.11,5.57,38.56-17.25,27.3-36.38-8.92-14.83-4.3-22.07,4.55-27.73C188.86,301.29,179,304,173.57,313.57,166.11,326.76,173.15,344.68,188.9,348.84Z" transform="translate(-170.59 -224.57)"/><path class="cls-8" d="M209.08,257.15a15.3,15.3,0,0,0-9.36,7.65c-3.8,7.36-.62,10.22.93,17.64,2.66,12.73-6.64,15.72-17.42,21.77l37.52-19.48C236.53,275.56,225.92,252.34,209.08,257.15Z" transform="translate(-170.59 -224.57)"/><path class="cls-7" d="M351.74,320c-18.91,5.4-18.9,32.62.55,37.38,13.36,3.27,22.18-.53,23.77,22.05V335.79C375.4,325.06,363.5,316.64,351.74,320Z" transform="translate(-170.59 -224.57)"/><path class="cls-8" d="M376.05,335.79c0,36.7-5.2,62.77,17.8,68.84,21.32,5.62,38.5-17.6,27.32-36.32C406.28,343.38,378.28,371.24,376.05,335.79Z" transform="translate(-170.59 -224.57)"/><path class="cls-7" d="M309,440.61c-12.68,13.36-10.19,23.62-30.74,15C312.93,478.1,311.35,477,311.35,477A24.53,24.53,0,0,0,350,463.77C356.33,439.63,326.4,422.29,309,440.61Z" transform="translate(-170.59 -224.57)"/><path class="cls-8" d="M257.91,473.64c3.1,10.86,17.25,15.91,26.76,5.05,6-7.88,13.21-11.18,25.58-2.33l-32-20.74C265.67,450.34,254.61,462.07,257.91,473.64Z" transform="translate(-170.59 -224.57)"/><path class="cls-8" d="M320.56,345.14A21.72,21.72,0,1,1,292,334,21.72,21.72,0,0,1,320.56,345.14Z" transform="translate(-170.59 -224.57)"/></svg>